<?xml version="1.0" encoding="utf-8" ?>
<svg xmlns="http://www.w3.org/2000/svg" xmlns:xlink="http://www.w3.org/1999/xlink" width="255" height="255">
	<path fill="#10E6BF" transform="matrix(0.24919 -0.000451507 0.000451507 0.24919 0 0.462341)" d="M-0 -0L1024 0L1024 1024L-0 1024L0 -0Z"/>
	<path transform="matrix(0.24919 -0.000451507 0.000451507 0.24919 0 0.462341)" d="M528.002 189.6L529.178 211.75C529.496 214.868 530.613 217.786 530.835 221C531.052 224.157 530.405 228.983 531.341 231.88L532.25 234.278C534.109 233.946 535.813 231.946 537.275 230.768L546.5 223.501C548.749 221.657 551.427 218.601 554.013 217.422C555.731 216.639 559.53 216.606 561.25 217.382C562.207 217.814 562.762 218.524 563.845 218.858L564.5 219.02C564.901 219.621 564.977 219.668 565.25 220.464C565.546 221.324 566.149 224.825 565.964 225.649C565.411 228.112 562.599 231.825 561.417 234.241L556.222 244.584C554.539 248.355 553.153 252.404 551.214 256.035C550.424 257.515 549.31 257.976 548.645 259.672C547.805 261.813 546.509 263.646 545.631 265.747C545.041 267.159 545.035 268.497 544.277 269.99L543.813 270.254C542.622 271.05 539.358 277.291 539.029 278.773C538.737 280.09 538.567 280.712 537.75 281.834C535.816 284.488 535.221 286.962 533.986 289.953C532.641 293.21 530.864 296.288 529.363 299.476C527.168 304.138 524.49 313.094 519.76 315.75C518.098 316.684 514.782 316.708 513.06 315.957C509.797 314.534 507.846 311.13 506.681 307.958L489.293 263.534C484.369 266.129 479.806 269.823 475.391 273.205C473.22 274.868 470.338 277.515 467.731 278.386C465.774 279.039 462.796 279.439 460.976 278.251L458.456 276.25C457.149 275.217 456.257 274.157 455.25 272.848C454.964 271.176 454.9 269.838 455.207 268.161L455.335 267.5C455.638 265.82 456.053 264.77 456.967 263.304L457.25 262.861C457.083 262.661 456.825 262.511 456.75 262.262C456.741 262.231 457.209 261.022 457.218 261C458.81 256.943 461.276 253.501 463.188 249.635L466.945 241.5C467.776 239.864 469.456 237.766 469.564 235.944C469.623 234.955 469.434 235.47 469.986 234.509C472.208 230.639 473.597 226.415 475.711 222.507L476.13 223.379C476.616 222.946 476.496 223.154 476.725 222.575C477.06 221.723 477.336 220.915 477.778 220.106C478.3 219.148 478.876 218.358 478.81 217.219L478.738 216.5C481.021 215.278 481.695 210.855 483.057 208.627C485.617 204.439 487.386 199.944 489.417 195.5L505.71 160.974C507.155 157.913 509.141 154.26 512.648 153.224C514.824 152.582 518.935 152.75 520.981 153.726C521.564 155.061 522.925 156.256 523.853 157.442C525.707 159.808 525.369 165.429 525.533 168.424C525.791 169.71 526.054 170.955 526.174 172.262C526.248 173.067 526.167 172.651 526.603 173.332C527.401 174.58 527.39 176.281 527.531 177.73C527.917 181.711 528.088 185.602 528.002 189.6Z"/>
	<path fill="#054438" transform="matrix(0.24919 -0.000451507 0.000451507 0.24919 0 0.462341)" d="M525.533 168.424C525.791 169.71 526.054 170.955 526.174 172.262C526.248 173.067 526.167 172.651 526.603 173.332C527.401 174.58 527.39 176.281 527.531 177.73C527.917 181.711 528.088 185.602 528.002 189.6C524.141 184.769 525.398 174.278 525.533 168.424Z"/>
	<path fill="#259B0B" transform="matrix(0.24919 -0.000451507 0.000451507 0.24919 0 0.462341)" d="M487.666 239.108L488.652 240.802C492.998 240.995 496.207 241.045 499.38 244.459C502.65 247.979 503.657 253.353 504.886 257.908C503.75 256.518 502.633 255.275 501.664 253.75L502.038 252.5C501.209 250.685 500.334 248.693 499.172 247.061C497.637 244.906 495.883 242.956 493.142 242.625C489.411 242.173 486.388 245.134 483.534 247.174C484.517 244.452 486.3 241.681 487.666 239.108Z"/>
	<path fill="#10E6BF" transform="matrix(0.24919 -0.000451507 0.000451507 0.24919 0 0.462341)" d="M487.666 239.108L489.751 235.418C490.201 234.637 490.219 234.082 490.25 233.205L490.931 232.528C492.117 231.281 492.43 229.76 493.144 228.25C494.204 226.004 496.189 223.721 496.226 221.167C496.245 219.851 496.544 219.522 497.25 218.452C498.374 217.926 498.315 217.996 498.75 216.834L498.25 216.197C498.816 215.656 499.701 215.094 499.821 214.323C500.114 212.432 500.831 211.146 501.75 209.497C505.122 203.445 507.268 196.828 510.956 191.014C512.352 198.588 512.285 206.11 512.803 213.76L515.104 237.873C515.527 242.033 515.422 246.964 516.722 250.93C517.277 252.622 518.287 253.813 519.75 254.81C522.056 256.383 523.918 256.986 526.75 256.993L527.552 256.534C528.907 255.776 529.761 255.677 531.315 255.75C531.047 256.341 530.795 256.76 530.405 257.282C528.639 259.644 526.846 262.989 525.967 265.787C525.486 267.315 526.111 265.577 525.228 267L525.008 267.638C523.825 270.96 521.754 273.875 520.209 277L519.928 277.763L519.499 278.586C518.6 280.342 517.582 282.662 517.088 284.575L516.25 284.796L509.043 267.878C507.608 264.686 505.749 261.292 504.886 257.908C503.657 253.353 502.65 247.979 499.38 244.459C496.207 241.045 492.998 240.995 488.652 240.802L487.666 239.108Z"/>
	<path transform="matrix(0.24919 -0.000451507 0.000451507 0.24919 0 0.462341)" d="M264.697 195.75C265.929 196.109 266.228 196.258 267.101 197.25C267.675 197.901 268.038 198.387 268.725 198.96C271.262 201.078 272.787 203.116 275.75 204.653C277.009 205.305 278.96 207.608 279.49 208.891C280.162 210.519 281.595 211.474 282.807 212.726L293.641 223.365L301.462 231.447C302.725 232.776 304.017 234.467 305.737 235.189C308.203 236.225 308.632 238.788 310.53 239.775C312.913 241.015 314.666 244.055 316.507 246L328.755 258.418L347.393 276.363C348.065 278.697 348.776 281.182 348.625 283.641C348.536 285.095 347.955 286.273 346.843 287.221C341.855 291.478 332.008 289.055 325.946 288.427L314.56 287.538C315.488 292.81 319.068 298.719 321.438 303.539C323.558 307.851 325.277 312.272 327.611 316.5L328.166 316.759C329.566 317.541 329.919 318.769 330.239 320.25C330.776 322.726 332.894 328.615 335.046 329.912L335.675 330.25C335.758 331.702 335.91 333.223 336.693 334.496C337.546 335.884 338.715 336.738 339.013 338.422C339.696 342.28 342.47 345.476 344.256 348.844C345.326 350.859 345.141 353.137 344.436 355.25C343.604 357.747 340.896 359.696 338.561 360.654C336.654 361.436 334.389 361.396 332.5 360.584C329.675 359.37 327.072 356.789 324.704 354.843L307.538 340.376L297.548 331.326C294.829 328.986 291.102 327.209 288.836 324.417C287.061 322.231 284.387 320.489 282.236 318.606L261.998 301.198L245.535 286.498L232.153 275.626C229.149 273.124 225.862 270.524 223.782 267.148C222.429 264.952 222.471 262.245 222.948 259.803C223.499 256.977 224.057 256.468 226.504 254.89C232.842 250.802 244.706 256.581 251.383 258.545C254.289 259.4 257.421 259.805 260.25 260.67C261.543 261.066 261.986 261.587 262.547 262.75C264.017 262.876 265.657 263.211 267.082 262.75L255.054 208.847C254.643 206.27 254 202.679 255.668 200.488C258.074 197.328 260.832 196.207 264.697 195.75Z"/>
	<path fill="#10E6BF" transform="matrix(0.24919 -0.000451507 0.000451507 0.24919 0 0.462341)" d="M277.676 232.25C278.996 232.522 281.753 235.45 282.547 236.616C284.046 238.819 286.46 240.804 288.336 242.751L305.093 259.345C307.999 262.223 311.4 266.741 314.81 268.866C315.52 269.308 316.133 269.765 316.788 270.29C311.433 270.818 304.497 268.218 299.542 270.714C296.855 272.068 295.132 274.357 294.343 277.244C293.448 280.521 294.363 284.553 295.981 287.49C299.57 294.005 301.646 300.705 304.502 307.5C305.744 310.455 308.836 315.024 308.75 318.204L307.25 316.783L261.182 277.851C265.512 278.708 269.959 280.689 274.34 280.96C277.4 281.148 279.369 280.921 281.75 278.866C282.086 277.969 281.938 278.174 282.374 277.536C283.92 275.271 284.89 273.552 285.055 270.766C285.31 266.452 283.163 260.646 282.241 256.354L279.494 242.5C278.759 239.444 276.711 235.22 277.676 232.25Z"/>
	<path transform="matrix(0.24919 -0.000451507 0.000451507 0.24919 0 0.462341)" d="M771.76 256.68C778.417 254.927 786.472 252.013 793.35 252.381C795.711 252.507 797.169 253.583 798.663 255.359C800.078 257.041 800.352 259.304 800.138 261.432C799.924 263.556 798.391 265.742 796.939 267.25C793.502 270.82 789.46 273.907 785.796 277.25L769.028 292.766L713.75 342.55L698.352 356.847C696.714 358.423 695.005 360.787 693.099 361.982C691.799 362.797 689.004 362.241 687.591 361.826C685.526 361.22 683.529 359.65 682.517 357.75C681.553 355.94 681.123 353.773 681.579 351.75C682.353 348.315 684.588 344.622 686.048 341.368L694.1 323.253C695.621 319.895 696.55 316.389 697.964 313C701.505 304.514 705.336 296.003 708.25 287.278L707.785 286.75L706.5 287.15C703.369 288.149 700.104 288.788 696.93 289.654C692.748 290.794 685.617 293.696 681.354 292.241C679.405 291.576 676.944 290.24 675.994 288.351L675.75 287.818C675.057 286.351 674.902 285.117 674.909 283.496C674.918 281.329 674.902 279.862 676.502 278.281C678.895 275.917 680.683 272.951 683.009 270.456L691.075 262.023C692.041 261.049 693.457 260.337 694.099 259.137C695.117 257.234 697.854 255.163 699.407 253.506L706.438 245.939C707.848 244.354 709.054 242.63 710.79 241.374C714.46 238.719 717.454 234.477 720.75 231.315C725.579 226.683 730.665 222.461 734.944 217.25C736.502 215.352 738.954 213.864 739.903 211.541C740.6 209.832 741.746 208.574 743.169 207.414C744.295 206.495 745.124 205.356 746.309 204.525C749.66 202.174 751.97 198.418 755.268 196.036C755.987 195.517 755.856 195.103 756.047 194.25C757.953 193.122 760.037 192.285 762.301 192.807L763 193.037C765.04 193.688 766.846 195.243 768.077 196.992C771.047 201.209 767.61 212.809 766.743 217.765L760.522 250.449L758.111 259.083C762.833 258.82 767.213 257.959 771.76 256.68Z"/>
	<path fill="#10E6BF" transform="matrix(0.24919 -0.000451507 0.000451507 0.24919 0 0.462341)" d="M746.628 230.25L747.303 230.523C747.11 232.063 747.161 233.97 746.3 235.25L745.791 234.565L741.731 257.823C741.06 261.434 739.905 265.299 739.996 268.986C740.06 271.606 741.052 273.817 743.016 275.564C744.522 276.904 746.539 278.316 748.636 278.136L759.393 276.792L724.162 309.687C722.311 309.949 721.099 311.341 719.675 312.445L720.857 312.671L719.75 313.462L718.25 313.846C717.488 309.602 720.574 304.467 721.976 300.453C723.403 296.371 724.991 291.228 725.6 286.988L725.73 286.017L726.348 285.673L727.145 285.689C728.211 281.487 729.56 277.929 727.798 273.75C726.98 273.408 726.584 273.255 726.062 272.51C724.884 270.828 723.642 269.524 721.816 268.55C721.296 268.273 719.478 267.07 718.995 267.063C716.118 267.024 711.639 269.292 708.63 269.852L729.828 247.185C735.435 241.238 740.156 235.412 746.628 230.25Z"/>
	<path transform="matrix(0.24919 -0.000451507 0.000451507 0.24919 0 0.462341)" d="M426.309 312.527L427.25 312.435C434.4 311.962 442.498 313.519 448.812 316.989C451.347 318.382 453.27 320.115 455.581 321.75C457.646 323.21 459.357 325.372 461.335 326.65C462.6 327.468 463.193 327.81 463.877 329.214C464.298 330.077 464.484 330.511 465.137 331.258C465.914 332.149 465.601 331.65 466.181 332.73C466.91 334.087 467.795 335.367 468.464 336.75C469.347 338.574 469.673 340.672 470.87 342.336C472.676 344.848 473.166 349.613 473.383 352.75C474.148 363.808 471.099 375.749 463.774 384.207L556.25 384.236L557.331 382.814C557.189 380.87 555.519 379.158 554.569 377.487C548.904 367.517 547.389 355.363 550.705 344.311C553.207 335.973 559.042 329.141 565.158 323.217C566.457 321.959 567.733 320.262 569.375 319.477C572.856 317.815 576.528 315.84 580.196 314.683C587.592 312.35 594.597 312.539 602.182 313.703C603.266 313.87 605.693 314.02 606.471 314.697C607.649 315.722 606.6 315.199 607.636 315.73L608.25 316.018C609.721 316.784 610.962 316.676 612.393 317.315L613.25 317.733C618.776 320.257 622.306 323.554 626.602 327.75C626.715 330.149 630.107 333.93 631.301 336.348C632.878 339.544 633.625 342.774 634.982 346.007C636.123 348.727 637.212 355.151 636.558 358.05C635.865 361.126 635.969 364.507 635.403 367.672C634.693 371.639 632.113 377.169 629.565 380.324C628.656 381.449 628.368 382.142 627.949 383.5C629.727 385.064 685.177 382.864 693.619 384.488C699.77 385.671 704.295 388.769 709.77 391.474L710.356 391.757C713.319 393.263 719.825 399.485 720.673 402.508C721.175 404.296 722.218 405.688 722.861 407.405L727.232 419.75L728.226 419.75C729.586 422.865 729.72 426.084 730.972 429.14L733.98 437.071C735.063 438.688 735.942 439.747 736.129 441.797C736.312 443.802 737.061 445.887 737.964 447.689C739.402 450.558 740.05 453.626 741.13 456.637C742.365 460.076 744.069 463.284 745.287 466.73L748.937 478.514C749.206 479.256 749.466 479.945 749.638 480.718L749.744 481.25C750.399 481.77 751.038 482.191 751.387 482.984L751.658 483.75C752.441 485.863 752.477 487.857 753.161 489.887L759.405 507.09L763.91 519.349C764.957 521.825 766.446 523.247 766.918 526.047C767.053 526.845 767.152 527.553 767.408 528.328L767.656 529C767.983 529.981 768.213 530.846 768.728 531.75C771.188 533.239 771.122 538.449 772.399 541.116C773.109 542.598 773.789 544.069 774.048 545.703C774.154 546.376 774.236 546.885 774.457 547.547L774.713 548.25C775.272 549.907 775.304 550.683 776.75 551.728C777.098 557.405 780.379 564.007 782.674 569.25L789.722 588.5C790.579 589.026 791.186 589.524 791.503 590.525C791.904 591.796 791.57 593.167 791.977 594.491C793.952 600.913 796.874 607.02 799.366 613.193L804.497 626.75C805.123 628.257 805.081 629.942 806.098 631.297C807.283 632.875 807.672 635.929 808.201 637.866C810.269 645.431 811.767 652.818 812.896 660.583C813.675 665.947 813.676 671.499 813.727 676.911C813.88 692.845 812.196 709.729 806.605 724.75C803.454 733.215 799.153 741.149 795.25 749.245C792.353 755.254 789.087 761.706 785.035 767.086C782.063 768.261 777.731 775.851 775.411 778.54C770.706 783.995 765.894 788.956 760.432 793.636C734.789 815.61 705.282 829.677 673.262 839.741L627.415 848.961C609.347 850.963 591.782 850.987 573.626 850.997L523.856 851.018L458.282 851.075L413.345 850.896C379.357 849.063 344.591 839.943 313.532 826.288C299.463 820.102 285.1 810.906 273.102 801.314L262.288 792.186C261.279 791.361 260.044 789.827 258.927 789.25C257.08 788.297 256.493 787.882 255.045 786.25L255.402 785.25C250.988 781.879 246.637 777.649 243.305 773.191C240.832 769.882 238.578 765.916 235.8 762.907C234.01 760.968 233.129 758.84 231.796 756.615C230.12 753.817 228.061 751.26 226.45 748.423C224.486 744.964 223.151 741.235 221.28 737.75C220.77 738.116 221.064 737.946 220.378 738.226L219.929 737.078C219.648 736.389 219.397 735.792 219.282 735.05C218.881 732.483 217.849 730.251 217.056 727.799C215.163 721.945 212.813 715.657 211.671 709.629C209.224 696.7 207.754 683.824 208.516 670.646C208.742 666.742 209.616 662.768 210.206 658.897C211.678 649.245 213.464 639.765 216.523 630.464C218.852 623.384 222.973 616.736 224.802 609.516C225.075 608.436 225.478 608.258 226.25 607.486L226.048 606.25C226.45 605.709 226.739 605.25 227.001 604.623C229.018 599.784 232.961 592.958 233.171 587.761L233.184 587C234.532 585.401 235.048 583.198 235.81 581.271C237.258 577.61 239.302 573.887 239.941 570C240.309 567.764 241.584 566.407 242.411 564.382C243.625 561.409 243.024 558.734 245.44 556.145L245.75 555.828C245.803 554.733 245.823 553.905 246.235 552.871L248.432 547.471C249.138 545.499 250.254 543.827 251.042 541.906L258.25 523.056L262.677 512.576C263.594 510.105 264.194 507.549 265.17 505.077C265.674 503.802 266.505 502.692 266.964 501.425L272.229 485.025C273.933 480.424 277.268 476.047 278.104 471.195C278.423 469.345 278.226 468.125 279.75 466.958L280.286 465.25C280.516 464.67 280.741 464.411 280.842 463.758C281.542 459.262 284.03 455.54 285.335 451.25C285.562 450.505 285.471 449.737 285.666 449C286.179 447.058 287.363 445.044 288.127 443.15L292.6 431.087C295.921 421.973 299.174 412.47 303.175 403.653C304.182 401.434 305.792 399.052 307.533 397.356L309.726 395.25L309.276 394.25C309.53 393.913 309.597 393.801 309.944 393.474C311.18 392.313 311.577 392.067 313.25 392.165C317.804 388.362 322.179 386.997 327.718 385.25C331.636 384.014 335.654 384.174 339.725 384.182L354.981 384.243L394.868 384.567C392.783 381.599 390.89 377.903 389.497 374.542C385.078 363.878 383.81 351.778 388.588 340.943C390.105 337.503 392.808 334.536 394.139 331.035C395.881 326.456 401.673 323.399 405.19 320.094C406.511 318.852 408.402 318.141 410.04 317.367C415.319 314.87 420.6 313.595 426.309 312.527Z"/>
	<path fill="#10E6BF" transform="matrix(0.24919 -0.000451507 0.000451507 0.24919 0 0.462341)" d="M591.856 330.703C593.48 330.567 595.123 330.686 596.745 330.828C602.875 331.366 609.242 334.95 613.107 339.717C618.739 346.663 619.972 354.546 619.045 363.25C618.724 366.264 617.164 369.86 615.381 372.309C610.944 378.402 603.775 382.865 596.393 384.045C592.761 384.103 589.241 384.287 585.754 383.117L585 382.856C583.864 382.501 583.318 381.943 582.297 381.378C578.527 379.291 576.217 376.647 572.889 374.156C571.699 373.266 571.488 372.859 570.911 371.496C570.481 370.48 570.095 369.339 569.374 368.494C567.849 366.707 567.364 364.635 567.084 362.333C566.112 354.34 567.346 346.608 572.608 340.259C577.564 334.281 584.331 331.399 591.856 330.703Z"/>
	<path fill="#10E6BF" transform="matrix(0.24919 -0.000451507 0.000451507 0.24919 0 0.462341)" d="M424.804 330.119C433.034 329.335 438.643 331.375 445.639 335.434C450.481 338.243 454.105 344.814 455.425 350.082C457.209 357.203 455.801 365.094 451.914 371.25C448.032 377.4 441.278 382.296 434.184 383.904C428.47 384.361 423.259 383.722 418.133 381.033C410.918 377.248 406.082 371.001 403.752 363.278C401.7 356.476 403.514 349.026 406.833 342.937C410.635 335.963 417.436 332.252 424.804 330.119Z"/>
	<path fill="#10E6BF" transform="matrix(0.24919 -0.000451507 0.000451507 0.24919 0 0.462341)" d="M332.635 402.114C348.277 401.339 364.325 402.175 380.013 402.139L486.723 402.054L615.001 401.991L685.402 401.875C688.587 401.957 691.772 402.143 694.766 403.323C699.094 405.029 703.833 408.608 706.337 412.512C708.463 415.826 709.446 419.64 710.708 423.328L715.909 436.941L691.75 437.189L309.736 437.725C309.864 434.316 311.17 431.295 312.003 428.047C312.307 426.861 312.597 427.135 313.203 426.25C313.757 425.44 314.021 422.514 314.25 421.4L315.75 421.258L315.779 420.613C316.096 415.252 319.168 410.522 323.182 407.097C325.977 404.713 329.132 403.143 332.635 402.114Z"/>
	<path fill="#10E6BF" transform="matrix(0.24919 -0.000451507 0.000451507 0.24919 0 0.462341)" d="M303.118 454.75L722.119 454.965C723.531 459.469 725.466 463.821 727.052 468.271L731.646 481.75C732.344 483.513 733.424 485.137 734.141 486.922L754.439 542.5C756.141 547.021 758.337 551.312 759.955 555.88L764.021 568.5L769.095 581.638C770.035 584.379 770.952 590.12 772.75 592.139L773.166 591.25L775.535 598C775.028 599.534 776.095 601.062 776.72 602.5C779.347 608.553 781.284 614.813 783.638 620.964C787.416 630.834 791.371 640.701 793.855 651C798.078 668.511 797.907 687.359 794.568 705.016C793.697 709.623 792.796 714.482 791.221 718.905C790.063 722.155 787.794 725.696 787.273 729.079C786.649 733.125 783.559 737.963 781.292 741.375C780.246 742.949 778.555 744.57 778.24 746.448C777.835 748.86 775.795 751.839 774.314 753.783C772.825 755.739 771.439 757.83 769.709 759.583C762.379 767.01 755.423 774.806 747.553 781.718C742.518 786.14 737.123 789.848 731.595 793.597C729.399 795.087 727.49 796.797 725.186 798.184C715.672 803.91 705.558 808.336 695.676 813.333C690.879 815.619 686.049 817.667 681 819.302L666 824.037C662.609 825.002 659.201 825.386 655.791 826.171C638.338 830.188 620.625 832.57 602.752 833.719C592.155 834.401 581.31 833.962 570.687 833.95L513.458 833.868L452.188 833.799L415.41 833.428C408.014 833.004 400.601 831.916 393.25 831.007C386.515 830.174 379.437 829.791 373.018 827.446L372.5 827.241C370.83 827.976 369.963 827.641 368.25 827.278L368.119 826.25L367 825.991C363.37 824.807 360.045 824.163 356.25 823.759L356.047 823C354.571 822.083 353.332 821.81 351.598 821.724C348.369 821.563 345.047 819.479 342 818.46C340.858 818.078 339.616 818.054 338.486 817.621C335.384 816.432 332.325 814.681 329.316 813.25L319.5 808.917C314.807 806.587 310.423 803.817 305.871 801.25C301.484 798.776 296.984 796.635 292.771 793.842C289.993 792 287.485 789.803 284.75 787.912C283.453 787.015 281.992 786.407 280.751 785.421C278.595 783.707 276.605 781.275 274.25 779.913L273.5 779.495C272.713 777.368 270.133 776.612 268.752 774.883C267.239 772.988 265.455 771.363 263.917 769.5C263.074 768.479 262.651 767.554 261.448 766.909C260.314 766.301 260.068 765.779 259.403 764.682L259 763.998L258.442 763.828C256.822 763.186 255.76 760.874 254.768 759.463C252.777 756.63 249.396 753.49 248.217 750.242C247.852 749.237 247.411 748.49 246.864 747.568C245.79 747.177 245.416 746.644 244.816 745.696C243.761 744.028 242.348 742.17 241.965 740.209C241.629 738.493 240.8 739.022 240.25 737.828C239.912 737.095 239.948 735.597 239.765 734.75C239.483 733.44 238.885 732.885 238.308 731.75C237.423 730.01 236.995 728.395 235.675 726.84C235.137 726.206 235.212 726.416 234.779 725.679C233.891 724.168 233.765 722.215 233.239 720.55C231.863 716.196 230.44 712.099 229.535 707.604C225.709 688.615 225.263 669.631 229.353 650.627L233.641 634.258L233.747 633.736L234.643 634.25L234.753 633.571C235.426 631.326 236.174 629.167 237.412 627.168L237.676 626.75C237.464 625.807 237.401 625.295 237.623 624.328L237.876 623.375C238.45 620.85 239.662 618.828 240.466 616.403L240.731 615.587L241.75 615.888C241.879 614.124 242.1 612.688 242.775 611.038C243.06 610.342 243.382 609.689 243.532 608.947C243.685 608.186 243.669 607.813 244.124 607.132L244.517 606.596L244.97 605.5C245.548 604.553 245.795 604.581 245.972 603.363C246.105 602.451 246.233 600.484 246.733 599.75C247.478 598.656 248.003 599.035 248.15 597.487C248.245 596.486 248.109 596.167 248.585 595.197L248.975 594.46L249.241 593.5C250.24 591.603 249.6 593.888 250.057 592.051C250.627 589.762 251.655 587.822 253.134 585.989L253.537 585.5L252.878 584.25C254.548 580.888 256.03 573.553 258.75 571.36C258.991 569.076 259.658 567.496 260.403 565.37C261.861 561.205 264.971 556.288 265.512 551.983L265.608 551L266.5 550.523L266.877 549.75C267.896 547.741 267.874 545.709 268.766 543.744C269.023 543.176 269.234 542.677 269.416 542.076C270.282 539.22 271.735 536.221 273.043 533.519C274.95 529.578 275.734 525.183 277.329 521.112L281.407 510.956C282.376 508.792 283.71 506.559 284.16 504.22C284.597 501.944 285.312 499.869 286.245 497.75L287 497.698C287.627 496.838 287.48 496.652 287.864 495.75C288.275 494.784 288.766 494.347 288.784 493.252C288.804 492.019 288.712 491.277 289.254 490.125L294.328 477.853C295.002 476.167 295.138 474.348 296.75 473.42C296.096 468.703 299.595 463.896 300.904 459.5C301.216 458.451 301.305 458 302.151 457.24C303.037 456.444 302.907 455.906 303.118 454.75Z"/>
	<path transform="matrix(0.24919 -0.000451507 0.000451507 0.24919 0 0.462341)" d="M544.883 516.618C546.438 516.656 549.15 516.336 550.559 516.757C551.914 517.161 554.173 519.459 555.304 520.385C555.98 522.725 557.023 525.502 556.752 527.953C556.564 529.655 555.902 530.825 554.545 531.843C553.228 532.832 552.483 534.43 552.107 536.016C550.072 544.6 544.094 551.825 541.72 560.411L539.273 567.409C538.517 567.89 537.973 568.198 537.533 569.015L537.196 569.75L530.001 587.997L529.805 588.75C529.103 589.306 529.035 589.367 528.687 590.25C532.743 594.217 539.4 596.832 544.171 600.066L565.954 614.875C568.122 616.37 570.262 618.566 572.592 619.702C573.375 620.083 573.179 619.859 573.758 620.532C574.332 621.2 574.766 626.25 574.53 627.144C574.074 628.872 572.912 630.803 571.75 632.151C568.141 636.339 564.025 640.22 560.159 644.17C558.45 645.917 557.15 647.987 555.459 649.75L536.974 668.249L488.506 718.003L473.59 733.269C470.386 736.516 466.648 740.8 462.513 742.75C461.613 743.035 460.764 743.059 459.824 743.072C456.887 743.113 455.099 742.685 452.999 740.5C451.663 739.11 450.289 736.282 450.529 734.33L450.733 733.479C452.042 727.044 455.094 720.751 457.718 714.75C458.809 712.255 459.447 709.541 460.45 707L465.86 694.716C466.546 693.106 466.676 691.209 467.589 689.75L468.144 689.75L468.75 688.924L468.25 688.662C467.952 687.295 468.378 686.407 469.088 685.249C470.565 682.839 471.627 679.84 472.626 677.192L472.976 676.25L473.745 676.25C474.127 674.865 474.458 673.428 475.03 672.107L475.302 671.5L474.75 670.811C473.649 669.194 472.684 668.168 471.17 666.93C466.183 662.85 460.526 659.563 455.414 655.609L447.319 649.169C446.262 648.242 445.056 646.598 443.75 646.14C441.887 645.485 440.953 644.654 439.5 643.294C437.909 641.807 436.234 640.532 434.45 639.283C433.977 636.795 433.029 633.379 434.226 630.982C435.608 628.213 438.848 626.062 440.446 623.235L440.687 622.75L441.111 623L441.5 623.361C443.21 619.908 448.033 617.388 450.232 613.817C452.583 610.001 456.626 607.491 459.75 604.333L487.542 576.053C490.19 573.385 492.368 570.37 495.437 568.123L495.827 567.845C495.627 567.254 495.517 566.883 495.488 566.25C499.428 565.481 504.804 558.391 507.75 555.404L507.35 554.25C508.642 553.248 508.535 554.095 509.75 553.717C510.903 553.357 510.897 551.417 511.22 550.75C511.726 549.701 514.651 548.078 515.665 547.246C517.568 545.685 519.323 543.884 521.039 542.122C524.071 539.009 526.701 535.55 529.635 532.359L538.108 523.75C540.408 521.316 542.324 518.819 544.883 516.618Z"/>
	<path fill="#10E6BF" transform="matrix(0.24919 -0.000451507 0.000451507 0.24919 0 0.462341)" d="M519.38 568.75L520.484 569.023C518.69 574.393 515.381 580.067 512.813 585.187C511.896 587.016 510.574 588.895 509.991 590.852C509.316 593.123 509.65 596.928 510.75 598.991L511.75 599.216C518.236 605.572 527.348 609.731 534.917 614.664C536.653 615.796 538.106 617.328 539.802 618.537L553.374 627.456L481.513 701.046L484.986 693.25C485.822 691.309 486.114 689.388 486.75 687.406C487.315 686.999 487.936 686.641 488.299 686.025L488.535 685.534C489.421 683.723 490.641 681.997 490.208 680C490.668 679.347 491.087 678.85 491.675 678.296L492.25 677.774L491.75 676.928L492.722 675.094C493.565 674.153 494.077 673.844 494.58 672.615C495.561 670.218 495.832 666.372 494.664 663.977C494.296 663.223 494.181 663.042 493.388 662.75L493.894 664.25L493.543 664.481L493.182 663.681L492.75 662.755C491.948 660.98 489.321 659.501 487.74 658.272L480.394 652.131C478.477 650.65 476.307 649.631 474.409 648.05C471.982 646.029 469.917 643.705 467.427 641.715C464.762 639.584 460.477 636.97 458.607 634.212L458.349 633.75L457.5 634.458L456.67 633.5C457.213 631.341 466.911 622.466 469.133 620.154L479.686 608.685L508.519 579C510.07 577.249 512.332 575.853 513.606 573.892C514.093 573.141 514.294 572.676 515.033 572.136L515.691 571.675C515.771 570.898 515.847 570.489 516.155 569.75L517.25 570.713L519.38 568.75Z"/>
</svg>
